<?xml version="1.0" encoding="UTF-8" standalone="no"?>
<!-- Created with Inkscape (http://www.inkscape.org/) -->

<svg
   xmlns:dc="http://purl.org/dc/elements/1.1/"
   xmlns:cc="http://creativecommons.org/ns#"
   xmlns:rdf="http://www.w3.org/1999/02/22-rdf-syntax-ns#"
   xmlns:svg="http://www.w3.org/2000/svg"
   xmlns="http://www.w3.org/2000/svg"
   xmlns:sodipodi="http://sodipodi.sourceforge.net/DTD/sodipodi-0.dtd"
   xmlns:inkscape="http://www.inkscape.org/namespaces/inkscape"
   width="617.60596"
   height="569.12354"
   id="svg5776"
   version="1.1"
   inkscape:version="0.48.4 r9939"
   sodipodi:docname="pruebadsun1.svg"
   inkscape:export-filename="C:\Users\vmx82782\Desktop\Personal\dsun1.png"
   inkscape:export-xdpi="90"
   inkscape:export-ydpi="90">
  <defs
     id="defs5778" />
  <sodipodi:namedview
     id="base"
     pagecolor="#ffffff"
     bordercolor="#666666"
     borderopacity="1.0"
     inkscape:pageopacity="0.0"
     inkscape:pageshadow="2"
     inkscape:zoom="0.98994949"
     inkscape:cx="226.36274"
     inkscape:cy="283.63509"
     inkscape:document-units="px"
     inkscape:current-layer="layer1"
     showgrid="false"
     inkscape:window-width="1600"
     inkscape:window-height="838"
     inkscape:window-x="-8"
     inkscape:window-y="-8"
     inkscape:window-maximized="1"
     fit-margin-top="0"
     fit-margin-left="0"
     fit-margin-right="0"
     fit-margin-bottom="0" />
  <metadata
     id="metadata5781">
    <rdf:RDF>
      <cc:Work
         rdf:about="">
        <dc:format>image/svg+xml</dc:format>
        <dc:type
           rdf:resource="http://purl.org/dc/dcmitype/StillImage" />
        <dc:title></dc:title>
      </cc:Work>
    </rdf:RDF>
  </metadata>
  <g
     inkscape:label="Layer 1"
     inkscape:groupmode="layer"
     id="layer1"
     transform="translate(-54.717671,-269.60325)"
     style="display:inline">
    <path
       inkscape:connector-curvature="0"
       id="path3327"
       style="fill:#373130;fill-opacity:1;fill-rule:evenodd;stroke:none"
       d="m 387.89428,318.19783 0,65.24057 82.94202,0 c 42.84662,0 77.92932,32.34344 77.92932,71.86019 l 0,76.41107 70.81566,0 0,-118.48769 c 0,-52.2592 -46.38802,-95.02414 -103.09364,-95.02414 l -128.59336,0 z"
       inkscape:export-filename="C:\Users\vmx82782\Desktop\Personal\path3343.png"
       inkscape:export-xdpi="63.255161"
       inkscape:export-ydpi="63.255161" />
    <path
       inkscape:connector-curvature="0"
       id="path3331"
       style="fill:#373130;fill-opacity:1;fill-rule:evenodd;stroke:none"
       d="m 256.22807,724.86922 c -42.8672,0 -77.9499,-32.34723 -77.9499,-71.84882 l 0,-76.40348 -70.79919,0 0,118.4801 c 0,52.23834 46.37567,95.01656 103.09775,95.01656 l 128.5913,0 0,-65.24436 -82.93996,0 z"
       inkscape:export-filename="C:\Users\vmx82782\Desktop\Personal\path3343.png"
       inkscape:export-xdpi="63.255161"
       inkscape:export-ydpi="63.255161" />
    <path
       inkscape:connector-curvature="0"
       id="path3335"
       style="fill:#373130;fill-opacity:1;fill-rule:evenodd;stroke:none"
       d="m 387.89428,790.11396 0,48.61281 160.09557,0 c 68.3875,0 124.3338,-51.56898 124.3338,-114.61376 l 0,-147.49571 -52.74237,0 -70.81566,0 0,76.40348 c 0,39.50159 -35.0827,71.84882 -77.92932,71.84882 l -82.94202,0 0,65.24436 z"
       inkscape:export-filename="C:\Users\vmx82782\Desktop\Personal\path3343.png"
       inkscape:export-xdpi="63.255161"
       inkscape:export-ydpi="63.255161" />
    <path
       inkscape:connector-curvature="0"
       id="path3339"
       style="fill:#f89734;fill-opacity:1;fill-rule:evenodd;stroke:none"
       d="m 288.39143,434.61411 150.26772,0 c 30.03091,0 54.59435,22.6425 54.59435,50.30802 l 0,138.45654 c 0,27.69017 -24.56344,50.31939 -54.59435,50.31939 l -150.26772,0 c -30.0268,0 -54.57378,-22.62922 -54.57378,-50.31939 l 0,-138.45654 c 0,-27.66552 24.54698,-50.30802 54.57378,-50.30802"
       inkscape:export-filename="C:\Users\vmx82782\Desktop\Personal\path3343.png"
       inkscape:export-xdpi="63.255161"
       inkscape:export-ydpi="63.255161" />
    <path
       inkscape:connector-curvature="0"
       d="m 107.47857,531.70891 70.79919,0 0,-76.41106 c 0,-39.51675 35.08476,-71.8583 77.9499,-71.8583 l 82.93996,0 0,-65.24246 0,-48.59384 -160.09145,0 c -68.39779,0 -124.358499,51.5538 -124.358499,114.5834 l 0,147.52226 52.760899,0 z"
       style="fill:#373130;fill-opacity:1;fill-rule:evenodd;stroke:none"
       id="path3343"
       inkscape:export-xdpi="63.255161"
       inkscape:export-ydpi="63.255161" />
  </g>
  <g
     inkscape:groupmode="layer"
     id="layer2"
     inkscape:label="Layer"
     style="display:inline" />
</svg>
